<svg version="1.1" id="Layer_1" xmlns="http://www.w3.org/2000/svg" xmlns:xlink="http://www.w3.org/1999/xlink" x="0px" y="0px"
	 viewBox="0 0 22 30" style="enable-background:new 0 0 22 30;" xml:space="preserve">
<path d="M20,13h-3V9c0-3.9-2.1-6-6-6S5,5.1,5,9v4H2V9c0-5,4-9,9-9s9,4,9,9V13z"/>
<path d="M19,30H3c-1.7,0-3-1.3-3-3V15c0-1.7,1.3-3,3-3h16c1.7,0,3,1.3,3,3v12C22,28.7,20.7,30,19,30z M3,15L3,15v12c0-1.1,0-1.3,0,0
	h16c0-0.8,0-1.1,0,0V15c0,0.7,0,0.8,0,0H3z"/>
<circle cx="11" cy="20" r="2"/>
<path d="M11.5,19h-1l-1,5h3L11.5,19z"/>
</svg>
