<?xml version="1.0" encoding="utf-8"?>
<!-- Generator: Adobe Illustrator 22.1.0, SVG Export Plug-In . SVG Version: 6.00 Build 0)  -->
<svg version="1.1" id="Layer_1" xmlns="http://www.w3.org/2000/svg" xmlns:xlink="http://www.w3.org/1999/xlink" x="0px" y="0px"
	 viewBox="0 0 55 48.1" style="enable-background:new 0 0 55 48.1;" xml:space="preserve">
<style type="text/css">
	.st0{fill:#555555;}
</style>
<path class="st0" d="M51.6,20.6c0.9,0,1.8,0.3,2.4,1c0.7,0.7,1,1.5,1,2.4s-0.3,1.8-1,2.4c-0.7,0.7-1.5,1-2.4,1h-0.4l-3.1,17.8
	c-0.1,0.8-0.5,1.5-1.2,2c-0.6,0.5-1.4,0.8-2.2,0.8H10.3c-0.8,0-1.6-0.3-2.2-0.8s-1-1.2-1.2-2L3.8,27.5H3.4c-0.9,0-1.8-0.3-2.4-1
	S0,25,0,24.1s0.3-1.8,1-2.4s1.5-1,2.4-1h48.2V20.6z M16,42.1c0.5,0,0.9-0.2,1.2-0.6c0.3-0.4,0.5-0.8,0.4-1.2l-0.9-11.2
	c0-0.5-0.2-0.9-0.6-1.2c-0.4-0.3-0.8-0.5-1.2-0.4c-0.5,0-0.9,0.2-1.2,0.6s-0.5,0.8-0.4,1.2l0.9,11.2c0,0.4,0.2,0.8,0.6,1.1
	C15.1,41.9,15.5,42.1,16,42.1L16,42.1z M29.4,40.4V29.2c0-0.5-0.2-0.9-0.5-1.2c-0.3-0.3-0.7-0.5-1.2-0.5s-0.9,0.2-1.2,0.5
	c-0.3,0.3-0.5,0.7-0.5,1.2v11.2c0,0.5,0.2,0.9,0.5,1.2s0.7,0.5,1.2,0.5s0.9-0.2,1.2-0.5C29.2,41.3,29.4,40.9,29.4,40.4z M40.8,40.5
	l0.9-11.2c0-0.5-0.1-0.9-0.4-1.2c-0.3-0.4-0.7-0.6-1.2-0.6s-0.9,0.1-1.2,0.4c-0.4,0.3-0.6,0.7-0.6,1.2l-0.9,11.2
	c0,0.5,0.1,0.9,0.4,1.2c0.3,0.4,0.7,0.6,1.2,0.6h0.1c0.4,0,0.8-0.2,1.2-0.5C40.6,41.3,40.8,41,40.8,40.5z M12.8,7.8l-2.5,11.1H6.7
	L9.5,7.1c0.3-1.6,1.1-2.9,2.4-3.9s2.7-1.5,4.3-1.5h4.5c0-0.5,0.2-0.9,0.5-1.2S21.9,0,22.3,0h10.3c0.5,0,0.9,0.2,1.2,0.5
	s0.5,0.7,0.5,1.2h4.5c1.6,0,3,0.5,4.3,1.5s2,2.3,2.4,3.9l2.7,11.8h-3.5L42.2,7.8C42,7.1,41.6,6.4,41,5.9s-1.3-0.8-2.1-0.8h-4.5
	c0,0.5-0.2,0.9-0.5,1.2s-0.7,0.5-1.2,0.5H22.3c-0.5,0-0.9-0.2-1.2-0.5c-0.3-0.3-0.5-0.7-0.5-1.2h-4.5c-0.8,0-1.5,0.3-2.1,0.8
	C13.4,6.4,13,7.1,12.8,7.8z"/>
</svg>
